<svg xmlns="http://www.w3.org/2000/svg" viewBox="333 91 380 380">
  <style>
    path { fill: #1a1815; }
    @media (prefers-color-scheme: dark) { path { fill: #f2eee4; } }
  </style>
  <path d="M470.000000,228.960312 
	C518.661377,228.968124 566.823059,229.042526 614.983826,228.882141 
	C619.828552,228.866028 623.087097,230.231750 625.886108,234.200882 
	C631.260376,241.822052 636.961670,249.219696 642.714966,256.563049 
	C644.998474,259.477692 645.389160,262.237732 644.358826,265.790558 
	C639.587219,282.244659 634.974304,298.746368 630.503052,315.284668 
	C629.533875,318.869385 627.808411,321.664185 624.928711,323.862183 
	C624.266846,324.367432 623.685120,325.010956 622.963501,325.399811 
	C608.715027,333.077942 601.664185,345.938812 596.362488,360.589233 
	C590.984985,375.449036 584.359985,389.855103 578.398926,404.507721 
	C577.136719,407.610321 575.209534,409.747498 572.291748,411.401001 
	C563.018372,416.656250 553.887634,422.162476 544.653137,427.487488 
	C541.709412,429.184998 539.300781,431.370941 537.209106,434.027283 
	C530.612793,442.404449 523.954529,450.732971 517.292908,459.058502 
	C516.174072,460.456848 515.338135,462.201202 513.149292,462.775269 
	C509.948456,460.508606 507.606384,457.241760 505.035217,454.239929 
	C485.515167,431.450684 465.097534,409.493958 443.782654,388.381653 
	C440.624573,385.253601 439.403900,381.365021 437.896545,377.540375 
	C434.172150,368.090332 430.622192,358.571411 427.019165,349.073700 
	C426.067505,346.565002 425.185028,343.881073 423.041656,342.231781 
	C405.525879,328.753937 399.322235,308.638489 391.757782,289.306213 
	C388.603333,281.244415 385.508850,273.155823 382.153046,265.177856 
	C380.993958,262.422272 380.983154,260.314545 382.883209,257.862427 
	C389.106598,249.830933 395.246460,241.728500 401.182007,233.483154 
	C403.592072,230.135223 406.501892,228.968674 410.507202,228.987656 
	C430.170990,229.080872 449.835663,228.987823 470.000000,228.960312 
z"/>
  <path d="M523 100 L601 226 L445 226 Z"/>
</svg>
